<?xml version="1.0" encoding="UTF-8"?>
<svg id="_レイヤー_2" data-name="レイヤー 2" xmlns="http://www.w3.org/2000/svg" viewBox="0 0 36.99 30">
  <defs>
    <style>
      .cls-1 {
        fill: #fff;
        stroke-width: 0px;
      }
    </style>
  </defs>
  <g id="_レイヤー_2-2" data-name="レイヤー 2">
    <g>
      <path class="cls-1" d="m36.41,14.19l-8.13-7.2c-.16-.14-.25-.35-.24-.55l.36-4.65c.02-.47-.14-.92-.47-1.26-.33-.35-.78-.54-1.26-.54h-.27c-.92,0-1.68.71-1.73,1.61l-.17,2.04-3.04-2.68c-.32-.28-.73-.43-1.15-.43h-3.56c-.42,0-.83.15-1.15.43L.58,14.18h0s-.02.01-.02.01c-.36.32-.57.78-.57,1.27,0,.48.21.94.57,1.26l1.71,1.53c.64.57,1.61.59,2.26.05l13.47-11.03c.28-.23.68-.23.95,0l13.47,11.03c.32.26.71.39,1.1.39.42,0,.83-.15,1.16-.44l1.71-1.53c.37-.32.58-.78.58-1.27s-.21-.95-.57-1.27Z"/>
      <path class="cls-1" d="m30.96,19.28l-11.21-9.42c-.65-.54-1.56-.6-2.26-.17l-.05-.02-11.32,9.28c-.44.37-.7.9-.7,1.46v7.68c0,1.05.87,1.91,1.94,1.91h6.29c1.07,0,1.94-.86,1.94-1.91v-2.69c0-.51.42-.92.95-.92h3.39c.52,0,.95.41.95.92v2.69c0,1.05.87,1.91,1.94,1.91h6.86c1.06,0,1.93-.85,1.94-1.9l.03-7.36c0-.57-.25-1.1-.68-1.46Z"/>
    </g>
  </g>
</svg>