<?xml version="1.0" encoding="UTF-8"?>
<svg id="_レイヤー_2" data-name="レイヤー 2" xmlns="http://www.w3.org/2000/svg" viewBox="0 0 29.25 30">
  <defs>
    <style>
      .cls-1 {
        fill: #fff;
        stroke-width: 0px;
      }
    </style>
  </defs>
  <g id="_レイヤー_2-2" data-name="レイヤー 2">
    <path class="cls-1" d="m20.84,0h-12.44C3.76,0,0,3.8,0,8.48v13.04c0,4.68,3.77,8.48,8.41,8.48h12.44c4.64,0,8.41-3.8,8.41-8.48v-13.04c0-4.68-3.77-8.48-8.41-8.48ZM2.99,8.48c0-3.01,2.43-5.47,5.42-5.47h12.44c2.99,0,5.42,2.45,5.42,5.46v13.04c0,3.01-2.43,5.47-5.42,5.47h-12.44c-2.99,0-5.42-2.45-5.42-5.46v-13.04h0Z"/>
    <path class="cls-1" d="m14.63,22.72c4.22,0,7.66-3.47,7.66-7.73s-3.44-7.72-7.66-7.72-7.66,3.47-7.66,7.73c0,4.26,3.44,7.72,7.66,7.72h0Zm0-13.04c2.91,0,5.27,2.38,5.27,5.32s-2.36,5.32-5.27,5.32-5.27-2.38-5.27-5.32,2.36-5.32,5.27-5.32Z"/>
    <path class="cls-1" d="m22.51,8.78c.95,0,1.72-.78,1.72-1.73s-.77-1.73-1.72-1.73-1.72.78-1.72,1.73.77,1.73,1.72,1.73Z"/>
  </g>
</svg>